<svg width="467" height="79" viewBox="0 0 467 79" fill="none" xmlns="http://www.w3.org/2000/svg">
<path d="M0.98876 5.73623V3.49256H24.5889C31.3477 3.49256 36.5275 5.68084 40.1285 10.0574C43.7294 14.434 45.5299 20.611 45.5299 28.5885V34.8209C45.5299 42.8539 43.7294 49.0586 40.1285 53.4352C36.5275 57.8117 31.3477 60 24.5889 60H0.98876V57.8394L5.55922 57.3408C6.44561 57.23 6.9719 57.0084 7.1381 56.676C7.3043 56.3436 7.3874 55.2079 7.3874 53.269V10.2236C7.3874 8.28461 7.3043 7.14892 7.1381 6.81652C6.9719 6.48413 6.44561 6.26253 5.55922 6.15173L0.98876 5.73623ZM24.4227 6.15173H14.617V57.3408H24.4227C27.4143 57.3408 29.8796 56.7868 31.8186 55.6788C33.7575 54.5709 35.1979 52.6873 36.1397 50.0281C37.1369 47.3135 37.6355 43.6295 37.6355 38.9759V24.4336C37.6355 19.8354 37.1369 16.2067 36.1397 13.5476C35.1979 10.8884 33.7575 9.0048 31.8186 7.89681C29.8796 6.73343 27.4143 6.15173 24.4227 6.15173ZM54.6046 21.1096V18.8659H67.4019V25.5138C69.3409 22.9101 71.2798 21.0265 73.2188 19.8631C75.2132 18.6443 77.2353 18.0349 79.2851 18.0349C81.0578 18.0349 82.7198 18.5612 84.271 19.6138C85.8222 20.6664 87.1241 22.3561 88.1767 24.6828L82.7752 27.9237C81.9442 25.9293 81.0024 24.5444 79.9499 23.7688C78.8973 22.9932 77.7339 22.6054 76.4597 22.6054C75.0747 22.6054 73.6897 23.0486 72.3047 23.935C70.9751 24.8213 69.4794 26.4833 67.8174 28.9209V53.269C67.8174 55.2079 67.9005 56.3713 68.0667 56.7591C68.2329 57.0915 68.7592 57.2854 69.6456 57.3408L75.878 57.8394V60H54.6046V57.8394L59.1751 57.3408C60.0615 57.23 60.5877 57.0084 60.7539 56.676C60.9201 56.3436 61.0032 55.2079 61.0032 53.269V25.5969C61.0032 23.658 60.9201 22.5223 60.7539 22.1899C60.5877 21.8575 60.0615 21.6359 59.1751 21.5251L54.6046 21.1096ZM100.845 9.5588C99.5158 9.5588 98.4078 9.1433 97.5214 8.31231C96.6904 7.42592 96.2749 6.29023 96.2749 4.90524C96.2749 3.57566 96.6904 2.49537 97.5214 1.66438C98.4078 0.833387 99.5158 0.417891 100.845 0.417891C102.175 0.417891 103.255 0.833387 104.086 1.66438C104.973 2.49537 105.416 3.57566 105.416 4.90524C105.416 6.29023 104.973 7.42592 104.086 8.31231C103.255 9.1433 102.175 9.5588 100.845 9.5588ZM91.1228 21.1096V18.8659H104.336V53.269C104.336 55.2079 104.419 56.3436 104.585 56.676C104.751 57.0084 105.277 57.23 106.164 57.3408L110.734 57.8394V60H91.1228V57.8394L95.6933 57.3408C96.5796 57.23 97.1059 57.0084 97.2721 56.676C97.4383 56.3436 97.5214 55.2079 97.5214 53.269V25.5969C97.5214 23.658 97.4383 22.5223 97.2721 22.1899C97.1059 21.8575 96.5796 21.6359 95.6933 21.5251L91.1228 21.1096ZM135.4 20.6941C132.353 20.6941 129.971 21.9683 128.254 24.5167C126.592 27.0096 125.761 31.1369 125.761 36.8984V41.8844C125.761 47.7013 126.592 51.884 128.254 54.4324C129.971 56.9253 132.741 58.1718 136.564 58.1718C139.168 58.1718 141.273 57.507 142.879 56.1774C144.486 54.8479 145.566 52.5488 146.12 49.2802L150.524 50.5267C149.527 54.2939 147.699 56.953 145.04 58.5042C142.381 60.0554 139.417 60.831 136.148 60.831C130.165 60.831 125.678 58.9751 122.686 55.2633C119.75 51.4962 118.282 46.4825 118.282 40.2224V38.5604C118.282 32.3557 119.75 27.3974 122.686 23.6857C125.622 19.9185 129.86 18.0349 135.4 18.0349C138.946 18.0349 141.882 18.7274 144.209 20.1124C146.591 21.4974 148.281 23.381 149.278 25.7631C150.275 28.0899 150.552 30.666 150.109 33.4914L143.544 34.4886C144.153 30.0566 143.738 26.6495 142.298 24.2674C140.913 21.8852 138.614 20.6941 135.4 20.6941ZM177.575 5.73623V3.49256H201.175C207.933 3.49256 213.113 5.68084 216.714 10.0574C220.315 14.434 222.116 20.611 222.116 28.5885V34.8209C222.116 42.8539 220.315 49.0586 216.714 53.4352C213.113 57.8117 207.933 60 201.175 60H177.575V57.8394L182.145 57.3408C183.031 57.23 183.558 57.0084 183.724 56.676C183.89 56.3436 183.973 55.2079 183.973 53.269V10.2236C183.973 8.28461 183.89 7.14892 183.724 6.81652C183.558 6.48413 183.031 6.26253 182.145 6.15173L177.575 5.73623ZM201.008 6.15173H191.203V57.3408H201.008C204 57.3408 206.465 56.7868 208.404 55.6788C210.343 54.5709 211.784 52.6873 212.725 50.0281C213.723 47.3135 214.221 43.6295 214.221 38.9759V24.4336C214.221 19.8354 213.723 16.2067 212.725 13.5476C211.784 10.8884 210.343 9.0048 208.404 7.89681C206.465 6.73343 204 6.15173 201.008 6.15173ZM266.591 50.5267C265.593 54.2939 263.71 56.953 260.94 58.5042C258.225 60.0554 255.206 60.831 251.882 60.831C245.733 60.831 241.135 58.9751 238.088 55.2633C235.041 51.4962 233.517 46.4825 233.517 40.2224V38.5604C233.517 32.3557 234.985 27.3974 237.921 23.6857C240.858 19.9185 245.123 18.0349 250.719 18.0349C253.71 18.0349 256.425 18.6443 258.862 19.8631C261.355 21.0819 263.322 22.8824 264.762 25.2645C266.258 27.6467 267.006 30.6106 267.006 34.1562C267.006 35.8181 266.84 37.5632 266.508 39.3914H240.996V41.8844C240.996 47.7013 241.882 51.884 243.655 54.4324C245.483 56.9253 248.42 58.1718 252.464 58.1718C255.012 58.1718 257.117 57.507 258.779 56.1774C260.497 54.8479 261.632 52.5488 262.186 49.2802L266.591 50.5267ZM250.719 20.6941C247.45 20.6941 245.013 21.9406 243.406 24.4336C241.799 26.9265 240.996 31.0261 240.996 36.7322H259.693V36.4829C259.804 35.7627 259.887 35.0702 259.943 34.4055C259.998 33.6853 260.026 33.0482 260.026 32.4942C260.026 28.3392 259.167 25.3476 257.45 23.5195C255.732 21.6359 253.489 20.6941 250.719 20.6941ZM292.384 43.214L287.315 41.9675C280.39 40.1947 276.927 36.2059 276.927 30.0012C276.927 27.9514 277.398 26.0124 278.34 24.1843C279.282 22.3561 280.778 20.888 282.827 19.78C284.933 18.6166 287.619 18.0349 290.888 18.0349C294.544 18.0349 297.481 18.6443 299.697 19.8631C301.913 21.0819 303.464 22.6608 304.35 24.5997C305.236 26.5387 305.513 28.6439 305.181 30.9153L298.699 32.0787C299.364 28.4777 298.976 25.68 297.536 23.6857C296.151 21.6913 293.852 20.6941 290.639 20.6941C288.146 20.6941 286.151 21.3312 284.656 22.6054C283.16 23.8242 282.412 25.6246 282.412 28.0068C282.412 29.7796 282.966 31.3585 284.074 32.7435C285.182 34.0731 287.038 35.0702 289.642 35.735L294.877 36.9815C298.533 37.8679 301.359 39.2806 303.353 41.2196C305.403 43.1586 306.428 45.7069 306.428 48.8647C306.428 52.4103 305.126 55.291 302.522 57.507C299.974 59.723 296.317 60.831 291.553 60.831C289.281 60.831 287.065 60.4986 284.905 59.8338C282.8 59.1136 280.944 58.0056 279.337 56.5098C277.786 54.9586 276.65 52.9643 275.93 50.5267L280.584 48.8647C281.193 52.3549 282.523 54.7925 284.572 56.1774C286.622 57.5624 288.977 58.2549 291.636 58.2549C293.187 58.2549 294.655 58.0056 296.04 57.507C297.481 57.0084 298.644 56.2328 299.53 55.1802C300.417 54.0723 300.86 52.6596 300.86 50.9422C300.86 49.1694 300.251 47.6459 299.032 46.3717C297.813 45.0975 295.597 44.045 292.384 43.214ZM323.931 9.5588C322.601 9.5588 321.493 9.1433 320.607 8.31231C319.776 7.42592 319.361 6.29023 319.361 4.90524C319.361 3.57566 319.776 2.49537 320.607 1.66438C321.493 0.833387 322.601 0.417891 323.931 0.417891C325.261 0.417891 326.341 0.833387 327.172 1.66438C328.058 2.49537 328.501 3.57566 328.501 4.90524C328.501 6.29023 328.058 7.42592 327.172 8.31231C326.341 9.1433 325.261 9.5588 323.931 9.5588ZM314.208 21.1096V18.8659H327.421V53.269C327.421 55.2079 327.504 56.3436 327.67 56.676C327.837 57.0084 328.363 57.23 329.249 57.3408L333.82 57.8394V60H314.208V57.8394L318.779 57.3408C319.665 57.23 320.192 57.0084 320.358 56.676C320.524 56.3436 320.607 55.2079 320.607 53.269V25.5969C320.607 23.658 320.524 22.5223 320.358 22.1899C320.192 21.8575 319.665 21.6359 318.779 21.5251L314.208 21.1096ZM377.765 64.8198C377.765 69.2517 376.131 72.6311 372.862 74.9579C369.649 77.34 365.162 78.5311 359.4 78.5311C353.084 78.5311 348.459 77.4231 345.522 75.2072C342.586 73.0466 341.063 70.3043 340.952 66.9803L347.101 65.7338C346.88 68.7808 347.683 71.2184 349.511 73.0466C351.395 74.9302 354.691 75.8719 359.4 75.8719C363.61 75.8719 366.99 75.0964 369.538 73.5452C372.142 71.994 373.444 69.7226 373.444 66.731C373.444 64.5151 372.696 62.8531 371.2 61.7451C369.704 60.6371 367.239 60.0831 363.804 60.0831H353.915C350.204 60.0831 347.6 59.3075 346.104 57.7563C344.608 56.1497 343.86 54.377 343.86 52.438C343.86 50.8314 344.248 49.3356 345.024 47.9506C345.855 46.5102 347.157 45.0975 348.93 43.7126C346.714 42.66 344.913 41.1365 343.528 39.1421C342.143 37.0923 341.451 34.6271 341.451 31.7463C341.451 28.6993 342.143 26.1786 343.528 24.1843C344.968 22.1345 346.852 20.611 349.179 19.6138C351.561 18.5612 354.192 18.0349 357.073 18.0349H358.486C361.533 18.0349 364.247 18.5889 366.63 19.6969L378.679 15.5419L379.593 21.7744H369.871C371.145 22.8824 372.142 24.2674 372.862 25.9293C373.638 27.5913 374.025 29.5303 374.025 31.7463C374.025 34.6825 373.305 37.1754 371.865 39.2252C370.48 41.275 368.624 42.8262 366.297 43.8788C363.97 44.8759 361.367 45.3745 358.486 45.3745H357.073C356.131 45.3745 355.217 45.3191 354.331 45.2083C353.445 45.0975 352.586 44.9313 351.755 44.7098C350.536 45.5407 349.65 46.3994 349.096 47.2858C348.597 48.1722 348.348 49.0863 348.348 50.0281C348.348 51.1361 348.736 52.0225 349.511 52.6873C350.342 53.3521 351.644 53.6845 353.417 53.6845H364.22C368.596 53.6845 371.948 54.6263 374.275 56.5098C376.602 58.3934 377.765 61.1634 377.765 64.8198ZM358.486 42.7154C359.982 42.7154 361.339 42.383 362.558 41.7182C363.832 41.0534 364.857 39.9454 365.632 38.3942C366.408 36.7876 366.796 34.5717 366.796 31.7463C366.796 28.8655 366.408 26.6495 365.632 25.0983C364.857 23.4918 363.832 22.3561 362.558 21.6913C361.339 21.0265 359.982 20.6941 358.486 20.6941H357.073C355.577 20.6941 354.192 21.0265 352.918 21.6913C351.644 22.3561 350.619 23.4918 349.844 25.0983C349.068 26.6495 348.68 28.8655 348.68 31.7463C348.68 34.5717 349.068 36.7876 349.844 38.3942C350.619 39.9454 351.644 41.0534 352.918 41.7182C354.192 42.383 355.577 42.7154 357.073 42.7154H358.486ZM430.37 57.8394V60H410.759V57.8394L415.329 57.3408C416.215 57.23 416.742 57.0084 416.908 56.676C417.074 56.3436 417.157 55.2079 417.157 53.269V32.5773C417.157 28.4777 416.492 25.5969 415.163 23.935C413.833 22.2176 411.922 21.3589 409.429 21.3589C407.601 21.3589 405.579 21.9129 403.363 23.0209C401.147 24.1289 399.069 26.2894 397.13 29.5026V53.269C397.13 55.2079 397.213 56.3436 397.38 56.676C397.546 57.0084 398.072 57.23 398.959 57.3408L403.529 57.8394V60H383.918V57.8394L388.488 57.3408C389.374 57.23 389.901 57.0084 390.067 56.676C390.233 56.3436 390.316 55.2079 390.316 53.269V25.5969C390.316 23.658 390.233 22.5223 390.067 22.1899C389.901 21.8575 389.374 21.6359 388.488 21.5251L383.918 21.1096V18.8659H396.715V25.5969C398.709 22.9378 400.953 21.0265 403.446 19.8631C405.994 18.6443 408.543 18.0349 411.091 18.0349C415.191 18.0349 418.348 19.3091 420.564 21.8575C422.836 24.3505 423.971 27.896 423.971 32.4942V53.269C423.971 55.2079 424.054 56.3436 424.221 56.676C424.387 57.0084 424.913 57.23 425.8 57.3408L430.37 57.8394ZM452.739 43.214L447.67 41.9675C440.745 40.1947 437.283 36.2059 437.283 30.0012C437.283 27.9514 437.754 26.0124 438.695 24.1843C439.637 22.3561 441.133 20.888 443.183 19.78C445.288 18.6166 447.975 18.0349 451.243 18.0349C454.9 18.0349 457.836 18.6443 460.052 19.8631C462.268 21.0819 463.819 22.6608 464.706 24.5997C465.592 26.5387 465.869 28.6439 465.537 30.9153L459.055 32.0787C459.72 28.4777 459.332 25.68 457.891 23.6857C456.506 21.6913 454.207 20.6941 450.994 20.6941C448.501 20.6941 446.507 21.3312 445.011 22.6054C443.515 23.8242 442.767 25.6246 442.767 28.0068C442.767 29.7796 443.321 31.3585 444.429 32.7435C445.537 34.0731 447.393 35.0702 449.997 35.735L455.232 36.9815C458.889 37.8679 461.714 39.2806 463.708 41.2196C465.758 43.1586 466.783 45.7069 466.783 48.8647C466.783 52.4103 465.481 55.291 462.877 57.507C460.329 59.723 456.673 60.831 451.908 60.831C449.637 60.831 447.421 60.4986 445.26 59.8338C443.155 59.1136 441.299 58.0056 439.693 56.5098C438.141 54.9586 437.006 52.9643 436.286 50.5267L440.939 48.8647C441.549 52.3549 442.878 54.7925 444.928 56.1774C446.978 57.5624 449.332 58.2549 451.991 58.2549C453.543 58.2549 455.011 58.0056 456.396 57.507C457.836 57.0084 458.999 56.2328 459.886 55.1802C460.772 54.0723 461.215 52.6596 461.215 50.9422C461.215 49.1694 460.606 47.6459 459.387 46.3717C458.168 45.0975 455.952 44.045 452.739 43.214Z" fill="white"/>
</svg>
