<svg width="291" height="395" viewBox="0 0 291 395" fill="none" xmlns="http://www.w3.org/2000/svg">
<path d="M15.8108 106.908V98.0143H109.358C136.148 98.0143 156.68 106.688 170.954 124.036C185.227 141.384 192.364 165.869 192.364 197.49V222.195C192.364 254.036 185.227 278.63 170.954 295.978C156.68 313.326 136.148 322 109.358 322H15.8108V313.436L33.9272 311.459C37.4407 311.02 39.5269 310.142 40.1857 308.824C40.8445 307.507 41.1738 303.005 41.1738 295.319V124.695C41.1738 117.009 40.8445 112.507 40.1857 111.19C39.5269 109.872 37.4407 108.994 33.9272 108.555L15.8108 106.908ZM108.699 108.555H69.8308V311.459H108.699C120.557 311.459 130.329 309.264 138.015 304.872C145.701 300.48 151.41 293.014 155.143 282.473C159.096 271.713 161.072 257.11 161.072 238.664V181.021C161.072 162.794 159.096 148.411 155.143 137.871C151.41 127.33 145.701 119.864 138.015 115.472C130.329 110.861 120.557 108.555 108.699 108.555Z" fill="white"/>
<path d="M89.8108 106.908V98.0143H183.358C210.148 98.0143 230.68 106.688 244.954 124.036C259.227 141.384 266.364 165.869 266.364 197.49V222.195C266.364 254.036 259.227 278.63 244.954 295.978C230.68 313.326 210.148 322 183.358 322H89.8108V313.436L107.927 311.459C111.441 311.02 113.527 310.142 114.186 308.824C114.844 307.507 115.174 303.005 115.174 295.319V124.695C115.174 117.009 114.844 112.507 114.186 111.19C113.527 109.872 111.441 108.994 107.927 108.555L89.8108 106.908ZM182.699 108.555H143.831V311.459H182.699C194.557 311.459 204.329 309.264 212.015 304.872C219.701 300.48 225.41 293.014 229.143 282.473C233.096 271.713 235.072 257.11 235.072 238.664V181.021C235.072 162.794 233.096 148.411 229.143 137.871C225.41 127.33 219.701 119.864 212.015 115.472C204.329 110.861 194.557 108.555 182.699 108.555Z" fill="white"/>
</svg>
